%
M48
M72
T01C0.0200
T02C0.0236
T03C0.0240
T04C0.0276
T05C0.0320
T06C0.0394
T07C0.0400
T08C0.0440
T09C0.1260
%
T01
X35831Y5780
X37831Y5780
T02
X38331Y4180
X37831Y10680
X28831Y4180
X25331Y9680
X25331Y10680
X25331Y11680
X25331Y13680
X25331Y14680
X29331Y19180
X25831Y22680
X24331Y23680
X20831Y23180
X16331Y22680
X14831Y22680
X10831Y16180
X8831Y15680
X7831Y13680
X13331Y15680
X15831Y11180
X17331Y4180
X19831Y2680
X10331Y4180
X38831Y18180
T03
X32831Y13880
X29831Y16780
X29331Y17780
X25431Y19280
X22831Y15780
X19831Y8180
T04
X11831Y8680
X11831Y10680
T05
X20831Y10680
X20831Y9680
X20831Y8680
X20831Y7680
X20831Y6680
X20831Y5680
X20831Y4680
X20831Y3680
X20831Y2680
X20831Y1680
X23831Y1680
X23831Y2680
X23831Y3680
X23831Y4680
X23831Y5680
X23831Y6680
X23831Y7680
X23831Y8680
X23831Y9680
X23831Y10680
X23831Y11680
X23831Y12680
X23831Y13680
X23831Y14680
X25331Y17180
X26331Y17180
X28331Y14680
X28331Y13680
X31331Y13680
X31331Y14680
X33331Y17680
X34331Y17680
X34331Y19680
X33331Y19680
X33331Y21680
X34331Y21680
X34331Y23680
X33331Y23680
X20831Y14680
X20831Y13680
X20831Y12680
X20831Y11680
X18831Y18680
X16831Y18680
X14331Y19680
X13331Y19680
X12331Y19680
T06
X9705Y20180
X8524Y18211
X7284Y20180
T07
X9831Y15180
X10831Y15180
X15051Y15070
X15051Y13290
X17611Y13290
X18831Y12680
X18831Y11680
X18831Y10680
X18831Y9680
X17611Y15070
X17831Y24180
X18831Y24180
X19831Y24180
X26831Y24180
X27831Y24180
X28831Y24180
X38831Y13680
X39831Y13680
X39831Y12680
X38831Y12680
X38831Y11680
X39831Y11680
X39831Y8680
X38831Y8680
X38831Y7680
X39831Y7680
X39831Y6680
X38831Y6680
X38831Y5680
X39831Y5680
X34331Y7180
X33331Y7180
X33331Y8680
X34331Y8680
X34331Y10180
X33331Y10180
X14831Y1180
X13831Y1180
X12831Y1180
T08
X14831Y23680
X10831Y23680
T09
X8331Y2180
X8331Y24180
X39331Y24180
X39331Y2180
M30
