G75*
G70*
%OFA0B0*%
%FSLAX24Y24*%
%IPPOS*%
%LPD*%
%AMOC8*
5,1,8,0,0,1.08239X$1,22.5*
%
%ADD10C,0.0060*%
D10*
X023994Y003737D02*
X024101Y003737D01*
X024314Y003524D01*
X024314Y003737D02*
X024314Y003310D01*
X024532Y003524D02*
X024532Y003630D01*
X024639Y003737D01*
X024852Y003737D01*
X024959Y003630D01*
X024959Y003417D01*
X024852Y003310D01*
X024639Y003310D01*
X024532Y003524D02*
X024959Y003524D01*
X025176Y003737D02*
X025176Y003203D01*
X025283Y003096D01*
X025390Y003096D01*
X025497Y003310D02*
X025176Y003310D01*
X025497Y003310D02*
X025603Y003417D01*
X025603Y003630D01*
X025497Y003737D01*
X025176Y003737D01*
X025821Y003630D02*
X025821Y003310D01*
X025821Y003630D02*
X025928Y003737D01*
X026248Y003737D01*
X026248Y003310D01*
X026466Y003524D02*
X026893Y003524D01*
X026893Y003630D02*
X026893Y003417D01*
X026786Y003310D01*
X026572Y003310D01*
X026466Y003524D02*
X026466Y003630D01*
X026572Y003737D01*
X026786Y003737D01*
X026893Y003630D01*
X027110Y003630D02*
X027110Y003417D01*
X027217Y003310D01*
X027537Y003310D01*
X027537Y003096D02*
X027537Y003737D01*
X027217Y003737D01*
X027110Y003630D01*
X027755Y003737D02*
X027755Y003310D01*
X028075Y003310D01*
X028182Y003417D01*
X028182Y003737D01*
X028505Y003951D02*
X028505Y003310D01*
X028611Y003310D02*
X028398Y003310D01*
X028829Y003310D02*
X029149Y003630D01*
X029256Y003524D02*
X028829Y003951D01*
X028611Y003951D02*
X028505Y003951D01*
X029256Y003951D02*
X029256Y003310D01*
X029258Y002687D02*
X029471Y002687D01*
X029578Y002580D01*
X029578Y002367D01*
X029471Y002260D01*
X029258Y002260D01*
X029151Y002367D01*
X029151Y002580D01*
X029258Y002687D01*
X028934Y002687D02*
X028613Y002687D01*
X028507Y002580D01*
X028507Y002367D01*
X028613Y002260D01*
X028934Y002260D01*
X028934Y002046D02*
X028934Y002687D01*
X028289Y002580D02*
X028182Y002687D01*
X027969Y002687D01*
X027862Y002580D01*
X027862Y002474D01*
X028289Y002474D01*
X028289Y002580D02*
X028289Y002367D01*
X028182Y002260D01*
X027969Y002260D01*
X027968Y001957D02*
X027968Y001851D01*
X027968Y001637D02*
X027968Y001210D01*
X028074Y001210D02*
X027861Y001210D01*
X027645Y001317D02*
X027645Y001530D01*
X027538Y001637D01*
X027218Y001637D01*
X027218Y001851D02*
X027218Y001210D01*
X027538Y001210D01*
X027645Y001317D01*
X027968Y001637D02*
X028074Y001637D01*
X028292Y001851D02*
X028719Y001851D01*
X028719Y001210D01*
X028292Y001210D01*
X028505Y001530D02*
X028719Y001530D01*
X029581Y001530D02*
X029581Y001424D01*
X030008Y001424D01*
X030008Y001530D02*
X029901Y001637D01*
X029688Y001637D01*
X029581Y001530D01*
X029688Y001210D02*
X029901Y001210D01*
X030008Y001317D01*
X030008Y001530D01*
X030331Y001637D02*
X030331Y001210D01*
X030438Y001210D02*
X030224Y001210D01*
X030654Y001210D02*
X030867Y001210D01*
X030761Y001210D02*
X030761Y001851D01*
X030867Y001851D01*
X031085Y001637D02*
X031405Y001637D01*
X031512Y001530D01*
X031405Y001424D01*
X031192Y001424D01*
X031085Y001317D01*
X031192Y001210D01*
X031512Y001210D01*
X031729Y001424D02*
X032156Y001424D01*
X032156Y001530D02*
X032050Y001637D01*
X031836Y001637D01*
X031729Y001530D01*
X031729Y001424D01*
X031836Y001210D02*
X032050Y001210D01*
X032156Y001317D01*
X032156Y001530D01*
X032374Y001210D02*
X032801Y001210D01*
X032801Y001851D01*
X032801Y002260D02*
X032801Y002901D01*
X032587Y002687D01*
X032374Y002901D01*
X032374Y002260D01*
X032156Y002367D02*
X032050Y002260D01*
X031729Y002260D01*
X031729Y002580D01*
X031836Y002687D01*
X032050Y002687D01*
X032050Y002474D02*
X031729Y002474D01*
X031512Y002687D02*
X031085Y002260D01*
X031512Y002260D02*
X031085Y002687D01*
X030975Y003310D02*
X030761Y003310D01*
X030868Y003310D02*
X030868Y003737D01*
X030975Y003737D01*
X031192Y003737D02*
X031298Y003737D01*
X031512Y003524D01*
X031512Y003737D02*
X031512Y003310D01*
X031729Y003310D02*
X031729Y003630D01*
X031836Y003737D01*
X032050Y003737D01*
X032156Y003630D01*
X032374Y003417D02*
X032481Y003310D01*
X032694Y003310D01*
X032801Y003417D01*
X032801Y003844D01*
X032694Y003951D01*
X032481Y003951D01*
X032374Y003844D01*
X032156Y003951D02*
X032156Y003310D01*
X032050Y002474D02*
X032156Y002367D01*
X030545Y003310D02*
X030225Y003310D01*
X030118Y003417D01*
X030225Y003524D01*
X030438Y003524D01*
X030545Y003630D01*
X030438Y003737D01*
X030118Y003737D01*
X030868Y003951D02*
X030868Y004057D01*
X030116Y002901D02*
X030223Y002794D01*
X030223Y002367D01*
X030116Y002260D01*
X029902Y002260D01*
X029796Y002367D01*
X029796Y002794D02*
X029902Y002901D01*
X030116Y002901D01*
X030331Y001957D02*
X030331Y001851D01*
X030331Y001637D02*
X030438Y001637D01*
X027000Y001530D02*
X026893Y001637D01*
X026680Y001637D01*
X026573Y001530D01*
X026573Y001424D01*
X027000Y001424D01*
X027000Y001530D02*
X027000Y001317D01*
X026893Y001210D01*
X026680Y001210D01*
M02*
