G75*
G70*
%OFA0B0*%
%FSLAX24Y24*%
%IPPOS*%
%LPD*%
%AMOC8*
5,1,8,0,0,1.08239X$1,22.5*
%
%ADD10C,0.0060*%
%ADD11C,0.0070*%
%ADD12C,0.0100*%
%ADD13C,0.0040*%
%ADD14C,0.0050*%
%ADD15C,0.0080*%
%ADD16R,0.4200X0.0300*%
%ADD17R,0.0750X0.0200*%
%ADD18R,0.0300X0.0200*%
%ADD19C,0.0160*%
%ADD20R,0.0200X0.1000*%
%ADD21R,0.0750X0.0300*%
%ADD22R,0.0150X0.0400*%
D10*
X006981Y002180D02*
X006983Y002253D01*
X006989Y002326D01*
X006999Y002398D01*
X007013Y002470D01*
X007030Y002541D01*
X007052Y002611D01*
X007077Y002680D01*
X007106Y002747D01*
X007138Y002812D01*
X007174Y002876D01*
X007214Y002938D01*
X007256Y002997D01*
X007302Y003054D01*
X007351Y003108D01*
X007403Y003160D01*
X007457Y003209D01*
X007514Y003255D01*
X007573Y003297D01*
X007635Y003337D01*
X007699Y003373D01*
X007764Y003405D01*
X007831Y003434D01*
X007900Y003459D01*
X007970Y003481D01*
X008041Y003498D01*
X008113Y003512D01*
X008185Y003522D01*
X008258Y003528D01*
X008331Y003530D01*
X008404Y003528D01*
X008477Y003522D01*
X008549Y003512D01*
X008621Y003498D01*
X008692Y003481D01*
X008762Y003459D01*
X008831Y003434D01*
X008898Y003405D01*
X008963Y003373D01*
X009027Y003337D01*
X009089Y003297D01*
X009148Y003255D01*
X009205Y003209D01*
X009259Y003160D01*
X009311Y003108D01*
X009360Y003054D01*
X009406Y002997D01*
X009448Y002938D01*
X009488Y002876D01*
X009524Y002812D01*
X009556Y002747D01*
X009585Y002680D01*
X009610Y002611D01*
X009632Y002541D01*
X009649Y002470D01*
X009663Y002398D01*
X009673Y002326D01*
X009679Y002253D01*
X009681Y002180D01*
X009679Y002107D01*
X009673Y002034D01*
X009663Y001962D01*
X009649Y001890D01*
X009632Y001819D01*
X009610Y001749D01*
X009585Y001680D01*
X009556Y001613D01*
X009524Y001548D01*
X009488Y001484D01*
X009448Y001422D01*
X009406Y001363D01*
X009360Y001306D01*
X009311Y001252D01*
X009259Y001200D01*
X009205Y001151D01*
X009148Y001105D01*
X009089Y001063D01*
X009027Y001023D01*
X008963Y000987D01*
X008898Y000955D01*
X008831Y000926D01*
X008762Y000901D01*
X008692Y000879D01*
X008621Y000862D01*
X008549Y000848D01*
X008477Y000838D01*
X008404Y000832D01*
X008331Y000830D01*
X008258Y000832D01*
X008185Y000838D01*
X008113Y000848D01*
X008041Y000862D01*
X007970Y000879D01*
X007900Y000901D01*
X007831Y000926D01*
X007764Y000955D01*
X007699Y000987D01*
X007635Y001023D01*
X007573Y001063D01*
X007514Y001105D01*
X007457Y001151D01*
X007403Y001200D01*
X007351Y001252D01*
X007302Y001306D01*
X007256Y001363D01*
X007214Y001422D01*
X007174Y001484D01*
X007138Y001548D01*
X007106Y001613D01*
X007077Y001680D01*
X007052Y001749D01*
X007030Y001819D01*
X007013Y001890D01*
X006999Y001962D01*
X006989Y002034D01*
X006983Y002107D01*
X006981Y002180D01*
X012331Y001430D02*
X012331Y000930D01*
X012581Y000680D01*
X013081Y000680D01*
X013331Y000930D01*
X013581Y000680D01*
X014081Y000680D01*
X014331Y000930D01*
X014581Y000680D01*
X015081Y000680D01*
X015331Y000930D01*
X015331Y001430D01*
X015081Y001680D01*
X014581Y001680D01*
X014331Y001430D01*
X014331Y000930D01*
X014331Y001430D02*
X014081Y001680D01*
X013581Y001680D01*
X013331Y001430D01*
X013331Y000930D01*
X013331Y001430D02*
X013081Y001680D01*
X012581Y001680D01*
X012331Y001430D01*
X021231Y000880D02*
X023431Y000880D01*
X023431Y015480D01*
X022581Y015480D01*
X022579Y015450D01*
X022574Y015420D01*
X022565Y015391D01*
X022552Y015364D01*
X022537Y015338D01*
X022518Y015314D01*
X022497Y015293D01*
X022473Y015274D01*
X022447Y015259D01*
X022420Y015246D01*
X022391Y015237D01*
X022361Y015232D01*
X022331Y015230D01*
X022301Y015232D01*
X022271Y015237D01*
X022242Y015246D01*
X022215Y015259D01*
X022189Y015274D01*
X022165Y015293D01*
X022144Y015314D01*
X022125Y015338D01*
X022110Y015364D01*
X022097Y015391D01*
X022088Y015420D01*
X022083Y015450D01*
X022081Y015480D01*
X021231Y015480D01*
X021231Y000880D01*
X025861Y001851D02*
X026288Y001851D01*
X026074Y001851D02*
X026074Y001210D01*
X026506Y001317D02*
X026933Y001744D01*
X026933Y001317D01*
X026826Y001210D01*
X026612Y001210D01*
X026506Y001317D01*
X026506Y001744D01*
X026612Y001851D01*
X026826Y001851D01*
X026933Y001744D01*
X027150Y001744D02*
X027150Y001637D01*
X027257Y001530D01*
X027577Y001530D01*
X027577Y001317D02*
X027577Y001744D01*
X027470Y001851D01*
X027257Y001851D01*
X027150Y001744D01*
X027150Y001317D02*
X027257Y001210D01*
X027470Y001210D01*
X027577Y001317D01*
X028439Y001317D02*
X028546Y001210D01*
X028759Y001210D01*
X028866Y001317D01*
X028866Y001424D01*
X028759Y001530D01*
X028546Y001530D01*
X028439Y001637D01*
X028439Y001744D01*
X028546Y001851D01*
X028759Y001851D01*
X028866Y001744D01*
X029084Y001637D02*
X029190Y001637D01*
X029190Y001210D01*
X029084Y001210D02*
X029297Y001210D01*
X029513Y001317D02*
X029620Y001210D01*
X029940Y001210D01*
X029940Y001103D02*
X029940Y001637D01*
X029620Y001637D01*
X029513Y001530D01*
X029513Y001317D01*
X029727Y000996D02*
X029834Y000996D01*
X029940Y001103D01*
X030158Y001210D02*
X030158Y001637D01*
X030478Y001637D01*
X030585Y001530D01*
X030585Y001210D01*
X030803Y001317D02*
X030909Y001424D01*
X031230Y001424D01*
X031230Y001530D02*
X031230Y001210D01*
X030909Y001210D01*
X030803Y001317D01*
X030909Y001637D02*
X031123Y001637D01*
X031230Y001530D01*
X031447Y001210D02*
X031661Y001210D01*
X031554Y001210D02*
X031554Y001851D01*
X031447Y001851D01*
X032521Y001744D02*
X032521Y001637D01*
X032628Y001530D01*
X032842Y001530D01*
X032948Y001424D01*
X032948Y001317D01*
X032842Y001210D01*
X032628Y001210D01*
X032521Y001317D01*
X032521Y001744D02*
X032628Y001851D01*
X032842Y001851D01*
X032948Y001744D01*
X033166Y001530D02*
X033273Y001637D01*
X033486Y001637D01*
X033593Y001530D01*
X033593Y001424D01*
X033166Y001424D01*
X033166Y001530D02*
X033166Y001317D01*
X033273Y001210D01*
X033486Y001210D01*
X033810Y001210D02*
X033810Y001637D01*
X034131Y001637D01*
X034237Y001530D01*
X034237Y001210D01*
X034455Y001317D02*
X034455Y001530D01*
X034562Y001637D01*
X034882Y001637D01*
X034882Y001851D02*
X034882Y001210D01*
X034562Y001210D01*
X034455Y001317D01*
X035100Y001317D02*
X035206Y001210D01*
X035420Y001210D01*
X035527Y001424D02*
X035100Y001424D01*
X035100Y001530D02*
X035206Y001637D01*
X035420Y001637D01*
X035527Y001530D01*
X035527Y001424D01*
X035744Y001424D02*
X035958Y001637D01*
X036064Y001637D01*
X036281Y001530D02*
X036388Y001637D01*
X036708Y001637D01*
X036601Y001424D02*
X036388Y001424D01*
X036281Y001530D01*
X036281Y001210D02*
X036601Y001210D01*
X036708Y001317D01*
X036601Y001424D01*
X035744Y001210D02*
X035744Y001637D01*
X035100Y001530D02*
X035100Y001317D01*
X037981Y002180D02*
X037983Y002253D01*
X037989Y002326D01*
X037999Y002398D01*
X038013Y002470D01*
X038030Y002541D01*
X038052Y002611D01*
X038077Y002680D01*
X038106Y002747D01*
X038138Y002812D01*
X038174Y002876D01*
X038214Y002938D01*
X038256Y002997D01*
X038302Y003054D01*
X038351Y003108D01*
X038403Y003160D01*
X038457Y003209D01*
X038514Y003255D01*
X038573Y003297D01*
X038635Y003337D01*
X038699Y003373D01*
X038764Y003405D01*
X038831Y003434D01*
X038900Y003459D01*
X038970Y003481D01*
X039041Y003498D01*
X039113Y003512D01*
X039185Y003522D01*
X039258Y003528D01*
X039331Y003530D01*
X039404Y003528D01*
X039477Y003522D01*
X039549Y003512D01*
X039621Y003498D01*
X039692Y003481D01*
X039762Y003459D01*
X039831Y003434D01*
X039898Y003405D01*
X039963Y003373D01*
X040027Y003337D01*
X040089Y003297D01*
X040148Y003255D01*
X040205Y003209D01*
X040259Y003160D01*
X040311Y003108D01*
X040360Y003054D01*
X040406Y002997D01*
X040448Y002938D01*
X040488Y002876D01*
X040524Y002812D01*
X040556Y002747D01*
X040585Y002680D01*
X040610Y002611D01*
X040632Y002541D01*
X040649Y002470D01*
X040663Y002398D01*
X040673Y002326D01*
X040679Y002253D01*
X040681Y002180D01*
X040679Y002107D01*
X040673Y002034D01*
X040663Y001962D01*
X040649Y001890D01*
X040632Y001819D01*
X040610Y001749D01*
X040585Y001680D01*
X040556Y001613D01*
X040524Y001548D01*
X040488Y001484D01*
X040448Y001422D01*
X040406Y001363D01*
X040360Y001306D01*
X040311Y001252D01*
X040259Y001200D01*
X040205Y001151D01*
X040148Y001105D01*
X040089Y001063D01*
X040027Y001023D01*
X039963Y000987D01*
X039898Y000955D01*
X039831Y000926D01*
X039762Y000901D01*
X039692Y000879D01*
X039621Y000862D01*
X039549Y000848D01*
X039477Y000838D01*
X039404Y000832D01*
X039331Y000830D01*
X039258Y000832D01*
X039185Y000838D01*
X039113Y000848D01*
X039041Y000862D01*
X038970Y000879D01*
X038900Y000901D01*
X038831Y000926D01*
X038764Y000955D01*
X038699Y000987D01*
X038635Y001023D01*
X038573Y001063D01*
X038514Y001105D01*
X038457Y001151D01*
X038403Y001200D01*
X038351Y001252D01*
X038302Y001306D01*
X038256Y001363D01*
X038214Y001422D01*
X038174Y001484D01*
X038138Y001548D01*
X038106Y001613D01*
X038077Y001680D01*
X038052Y001749D01*
X038030Y001819D01*
X038013Y001890D01*
X037999Y001962D01*
X037989Y002034D01*
X037983Y002107D01*
X037981Y002180D01*
X038581Y005180D02*
X038331Y005430D01*
X038331Y005930D01*
X038581Y006180D01*
X040081Y006180D01*
X040331Y006430D01*
X040331Y006930D01*
X040081Y007180D01*
X038581Y007180D01*
X038331Y007430D01*
X038331Y007930D01*
X038581Y008180D01*
X038331Y008430D01*
X038331Y008930D01*
X038581Y009180D01*
X040081Y009180D01*
X040331Y008930D01*
X040331Y008430D01*
X040081Y008180D01*
X038581Y008180D01*
X038581Y007180D02*
X038331Y006930D01*
X038331Y006430D01*
X038581Y006180D01*
X038581Y005180D02*
X040081Y005180D01*
X040331Y005430D01*
X040331Y005930D01*
X040081Y006180D01*
X040081Y007180D02*
X040331Y007430D01*
X040331Y007930D01*
X040081Y008180D01*
X040081Y011180D02*
X038581Y011180D01*
X038331Y011430D01*
X038331Y011930D01*
X038581Y012180D01*
X038331Y012430D01*
X038331Y012930D01*
X038581Y013180D01*
X038331Y013430D01*
X038331Y013930D01*
X038581Y014180D01*
X040081Y014180D01*
X040331Y013930D01*
X040331Y013430D01*
X040081Y013180D01*
X040331Y012930D01*
X040331Y012430D01*
X040081Y012180D01*
X040331Y011930D01*
X040331Y011430D01*
X040081Y011180D01*
X034831Y010430D02*
X034831Y009930D01*
X034581Y009680D01*
X034081Y009680D01*
X033831Y009930D01*
X033581Y009680D01*
X033081Y009680D01*
X032831Y009930D01*
X032831Y010430D01*
X033081Y010680D01*
X033581Y010680D01*
X033831Y010430D01*
X034081Y010680D01*
X034581Y010680D01*
X034831Y010430D01*
X033831Y010430D02*
X033831Y009930D01*
X034081Y009180D02*
X034581Y009180D01*
X034831Y008930D01*
X034831Y008430D01*
X034581Y008180D01*
X034081Y008180D01*
X033831Y008430D01*
X033581Y008180D01*
X033081Y008180D01*
X032831Y008430D01*
X032831Y008930D01*
X033081Y009180D01*
X033581Y009180D01*
X033831Y008930D01*
X034081Y009180D01*
X033831Y008930D02*
X033831Y008430D01*
X034081Y007680D02*
X034581Y007680D01*
X034831Y007430D01*
X034831Y006930D01*
X034581Y006680D01*
X034081Y006680D01*
X033831Y006930D01*
X033581Y006680D01*
X033081Y006680D01*
X032831Y006930D01*
X032831Y007430D01*
X033081Y007680D01*
X033581Y007680D01*
X033831Y007430D01*
X034081Y007680D01*
X033831Y007430D02*
X033831Y006930D01*
X029190Y001957D02*
X029190Y001851D01*
X019331Y009430D02*
X019081Y009180D01*
X018581Y009180D01*
X018331Y009430D01*
X018331Y009930D01*
X018581Y010180D01*
X018331Y010430D01*
X018331Y010930D01*
X018581Y011180D01*
X018331Y011430D01*
X018331Y011930D01*
X018581Y012180D01*
X018331Y012430D01*
X018331Y012930D01*
X018581Y013180D01*
X019081Y013180D01*
X019331Y012930D01*
X019331Y012430D01*
X019081Y012180D01*
X019331Y011930D01*
X019331Y011430D01*
X019081Y011180D01*
X019331Y010930D01*
X019331Y010430D01*
X019081Y010180D01*
X019331Y009930D01*
X019331Y009430D01*
X011331Y014930D02*
X011081Y014680D01*
X010581Y014680D01*
X010331Y014930D01*
X010081Y014680D01*
X009581Y014680D01*
X009331Y014930D01*
X009331Y015430D01*
X009581Y015680D01*
X010081Y015680D01*
X010331Y015430D01*
X010581Y015680D01*
X011081Y015680D01*
X011331Y015430D01*
X011331Y014930D01*
X010331Y014930D02*
X010331Y015430D01*
X010831Y018130D02*
X015831Y018130D01*
X015861Y018132D01*
X015891Y018137D01*
X015920Y018146D01*
X015947Y018159D01*
X015973Y018174D01*
X015997Y018193D01*
X016018Y018214D01*
X016037Y018238D01*
X016052Y018264D01*
X016065Y018291D01*
X016074Y018320D01*
X016079Y018350D01*
X016081Y018380D01*
X016081Y020980D01*
X016079Y021010D01*
X016074Y021040D01*
X016065Y021069D01*
X016052Y021096D01*
X016037Y021122D01*
X016018Y021146D01*
X015997Y021167D01*
X015973Y021186D01*
X015947Y021201D01*
X015920Y021214D01*
X015891Y021223D01*
X015861Y021228D01*
X015831Y021230D01*
X010831Y021230D01*
X010801Y021228D01*
X010771Y021223D01*
X010742Y021214D01*
X010715Y021201D01*
X010689Y021186D01*
X010665Y021167D01*
X010644Y021146D01*
X010625Y021122D01*
X010610Y021096D01*
X010597Y021069D01*
X010588Y021040D01*
X010583Y021010D01*
X010581Y020980D01*
X010581Y018380D01*
X010583Y018350D01*
X010588Y018320D01*
X010597Y018291D01*
X010610Y018264D01*
X010625Y018238D01*
X010644Y018214D01*
X010665Y018193D01*
X010689Y018174D01*
X010715Y018159D01*
X010742Y018146D01*
X010771Y018137D01*
X010801Y018132D01*
X010831Y018130D01*
X012031Y019080D02*
X012031Y019180D01*
X012031Y019080D02*
X012131Y019080D01*
X012531Y019080D02*
X012631Y019080D01*
X012631Y019180D01*
X012631Y019080D02*
X012831Y019080D01*
X012831Y020280D01*
X012631Y020280D01*
X012631Y020180D01*
X012631Y020280D02*
X012531Y020280D01*
X012831Y020280D02*
X013031Y020280D01*
X013131Y020280D01*
X013031Y020280D02*
X013031Y020180D01*
X013531Y020280D02*
X014131Y020280D01*
X014531Y020280D02*
X014631Y020280D01*
X014631Y020180D01*
X014631Y019180D02*
X014631Y019080D01*
X014531Y019080D01*
X014131Y019080D02*
X013531Y019080D01*
X013131Y019080D02*
X013031Y019080D01*
X013031Y019180D01*
X013031Y019080D02*
X012831Y019080D01*
X012031Y020180D02*
X012031Y020280D01*
X012131Y020280D01*
X012006Y021460D02*
X012433Y021887D01*
X012433Y021994D01*
X012326Y022101D01*
X012112Y022101D01*
X012006Y021994D01*
X011788Y021994D02*
X011681Y022101D01*
X011468Y022101D01*
X011361Y021994D01*
X011361Y021887D01*
X011468Y021780D01*
X011681Y021780D01*
X011788Y021674D01*
X011788Y021567D01*
X011681Y021460D01*
X011468Y021460D01*
X011361Y021567D01*
X012006Y021460D02*
X012433Y021460D01*
X012031Y023180D02*
X013631Y023180D01*
X013631Y024180D01*
X012031Y024180D01*
X012031Y023180D01*
X012431Y023430D02*
X012831Y023680D01*
X012831Y023930D01*
X012831Y023680D02*
X012231Y023680D01*
X012431Y023430D02*
X012431Y023930D01*
X012831Y023680D01*
X012831Y023430D01*
X012831Y023680D02*
X013081Y023680D01*
X006981Y024180D02*
X006983Y024253D01*
X006989Y024326D01*
X006999Y024398D01*
X007013Y024470D01*
X007030Y024541D01*
X007052Y024611D01*
X007077Y024680D01*
X007106Y024747D01*
X007138Y024812D01*
X007174Y024876D01*
X007214Y024938D01*
X007256Y024997D01*
X007302Y025054D01*
X007351Y025108D01*
X007403Y025160D01*
X007457Y025209D01*
X007514Y025255D01*
X007573Y025297D01*
X007635Y025337D01*
X007699Y025373D01*
X007764Y025405D01*
X007831Y025434D01*
X007900Y025459D01*
X007970Y025481D01*
X008041Y025498D01*
X008113Y025512D01*
X008185Y025522D01*
X008258Y025528D01*
X008331Y025530D01*
X008404Y025528D01*
X008477Y025522D01*
X008549Y025512D01*
X008621Y025498D01*
X008692Y025481D01*
X008762Y025459D01*
X008831Y025434D01*
X008898Y025405D01*
X008963Y025373D01*
X009027Y025337D01*
X009089Y025297D01*
X009148Y025255D01*
X009205Y025209D01*
X009259Y025160D01*
X009311Y025108D01*
X009360Y025054D01*
X009406Y024997D01*
X009448Y024938D01*
X009488Y024876D01*
X009524Y024812D01*
X009556Y024747D01*
X009585Y024680D01*
X009610Y024611D01*
X009632Y024541D01*
X009649Y024470D01*
X009663Y024398D01*
X009673Y024326D01*
X009679Y024253D01*
X009681Y024180D01*
X009679Y024107D01*
X009673Y024034D01*
X009663Y023962D01*
X009649Y023890D01*
X009632Y023819D01*
X009610Y023749D01*
X009585Y023680D01*
X009556Y023613D01*
X009524Y023548D01*
X009488Y023484D01*
X009448Y023422D01*
X009406Y023363D01*
X009360Y023306D01*
X009311Y023252D01*
X009259Y023200D01*
X009205Y023151D01*
X009148Y023105D01*
X009089Y023063D01*
X009027Y023023D01*
X008963Y022987D01*
X008898Y022955D01*
X008831Y022926D01*
X008762Y022901D01*
X008692Y022879D01*
X008621Y022862D01*
X008549Y022848D01*
X008477Y022838D01*
X008404Y022832D01*
X008331Y022830D01*
X008258Y022832D01*
X008185Y022838D01*
X008113Y022848D01*
X008041Y022862D01*
X007970Y022879D01*
X007900Y022901D01*
X007831Y022926D01*
X007764Y022955D01*
X007699Y022987D01*
X007635Y023023D01*
X007573Y023063D01*
X007514Y023105D01*
X007457Y023151D01*
X007403Y023200D01*
X007351Y023252D01*
X007302Y023306D01*
X007256Y023363D01*
X007214Y023422D01*
X007174Y023484D01*
X007138Y023548D01*
X007106Y023613D01*
X007077Y023680D01*
X007052Y023749D01*
X007030Y023819D01*
X007013Y023890D01*
X006999Y023962D01*
X006989Y024034D01*
X006983Y024107D01*
X006981Y024180D01*
X016381Y020030D02*
X016381Y017330D01*
X016383Y017313D01*
X016387Y017296D01*
X016394Y017280D01*
X016404Y017266D01*
X016417Y017253D01*
X016431Y017243D01*
X016447Y017236D01*
X016464Y017232D01*
X016481Y017230D01*
X019181Y017230D01*
X019198Y017232D01*
X019215Y017236D01*
X019231Y017243D01*
X019245Y017253D01*
X019258Y017266D01*
X019268Y017280D01*
X019275Y017296D01*
X019279Y017313D01*
X019281Y017330D01*
X019281Y020030D01*
X019279Y020047D01*
X019275Y020064D01*
X019268Y020080D01*
X019258Y020094D01*
X019245Y020107D01*
X019231Y020117D01*
X019215Y020124D01*
X019198Y020128D01*
X019181Y020130D01*
X016481Y020130D01*
X016464Y020128D01*
X016447Y020124D01*
X016431Y020117D01*
X016417Y020107D01*
X016404Y020094D01*
X016394Y020080D01*
X016387Y020064D01*
X016383Y020047D01*
X016381Y020030D01*
X017231Y018680D02*
X017651Y018680D01*
X018001Y018680D02*
X018431Y018680D01*
X025831Y017780D02*
X025878Y017778D01*
X025926Y017772D01*
X025972Y017763D01*
X026018Y017750D01*
X026062Y017734D01*
X026106Y017713D01*
X026147Y017690D01*
X026186Y017664D01*
X026223Y017634D01*
X026258Y017601D01*
X026290Y017566D01*
X026319Y017529D01*
X025831Y016580D02*
X025786Y016582D01*
X025740Y016587D01*
X025696Y016595D01*
X025652Y016607D01*
X025609Y016623D01*
X025567Y016641D01*
X025527Y016663D01*
X025489Y016687D01*
X025453Y016714D01*
X025418Y016744D01*
X025387Y016777D01*
X025357Y016812D01*
X025831Y016580D02*
X025876Y016582D01*
X025922Y016587D01*
X025966Y016595D01*
X026010Y016607D01*
X026053Y016623D01*
X026095Y016641D01*
X026135Y016663D01*
X026173Y016687D01*
X026209Y016714D01*
X026244Y016744D01*
X026275Y016777D01*
X026305Y016812D01*
X025831Y017780D02*
X025785Y017778D01*
X025739Y017773D01*
X025693Y017764D01*
X025648Y017752D01*
X025605Y017736D01*
X025563Y017717D01*
X025522Y017694D01*
X025483Y017669D01*
X025447Y017641D01*
X025412Y017610D01*
X025380Y017576D01*
X025351Y017540D01*
X027881Y015480D02*
X029181Y015480D01*
X030481Y015480D01*
X030481Y015280D01*
X029181Y015280D01*
X029181Y015480D01*
X029081Y014980D02*
X030581Y014980D01*
X030581Y014380D01*
X029081Y014380D01*
X029081Y014980D01*
X029081Y013980D02*
X030581Y013980D01*
X030581Y013380D01*
X029081Y013380D01*
X029081Y013980D01*
X029181Y013080D02*
X029181Y012880D01*
X030481Y012880D01*
X031781Y012880D01*
X031781Y015480D01*
X030481Y015480D01*
X027881Y015480D02*
X027881Y012880D01*
X029181Y012880D01*
X029181Y013080D02*
X030481Y013080D01*
X030481Y012880D01*
X033831Y018280D02*
X033878Y018278D01*
X033926Y018272D01*
X033972Y018263D01*
X034018Y018250D01*
X034062Y018234D01*
X034106Y018213D01*
X034147Y018190D01*
X034186Y018164D01*
X034223Y018134D01*
X034258Y018101D01*
X034290Y018066D01*
X034319Y018029D01*
X033831Y017080D02*
X033786Y017082D01*
X033740Y017087D01*
X033696Y017095D01*
X033652Y017107D01*
X033609Y017123D01*
X033567Y017141D01*
X033527Y017163D01*
X033489Y017187D01*
X033453Y017214D01*
X033418Y017244D01*
X033387Y017277D01*
X033357Y017312D01*
X033831Y017080D02*
X033876Y017082D01*
X033922Y017087D01*
X033966Y017095D01*
X034010Y017107D01*
X034053Y017123D01*
X034095Y017141D01*
X034135Y017163D01*
X034173Y017187D01*
X034209Y017214D01*
X034244Y017244D01*
X034275Y017277D01*
X034305Y017312D01*
X033831Y018280D02*
X033785Y018278D01*
X033739Y018273D01*
X033693Y018264D01*
X033648Y018252D01*
X033605Y018236D01*
X033563Y018217D01*
X033522Y018194D01*
X033483Y018169D01*
X033447Y018141D01*
X033412Y018110D01*
X033380Y018076D01*
X033351Y018040D01*
X034319Y020029D02*
X034290Y020066D01*
X034258Y020101D01*
X034223Y020134D01*
X034186Y020164D01*
X034147Y020190D01*
X034106Y020213D01*
X034062Y020234D01*
X034018Y020250D01*
X033972Y020263D01*
X033926Y020272D01*
X033878Y020278D01*
X033831Y020280D01*
X033357Y019312D02*
X033387Y019277D01*
X033418Y019244D01*
X033453Y019214D01*
X033489Y019187D01*
X033527Y019163D01*
X033567Y019141D01*
X033609Y019123D01*
X033652Y019107D01*
X033696Y019095D01*
X033740Y019087D01*
X033786Y019082D01*
X033831Y019080D01*
X033351Y020040D02*
X033380Y020076D01*
X033412Y020110D01*
X033447Y020141D01*
X033483Y020169D01*
X033522Y020194D01*
X033563Y020217D01*
X033605Y020236D01*
X033648Y020252D01*
X033693Y020264D01*
X033739Y020273D01*
X033785Y020278D01*
X033831Y020280D01*
X034305Y019312D02*
X034275Y019277D01*
X034244Y019244D01*
X034209Y019214D01*
X034173Y019187D01*
X034135Y019163D01*
X034095Y019141D01*
X034053Y019123D01*
X034010Y019107D01*
X033966Y019095D01*
X033922Y019087D01*
X033876Y019082D01*
X033831Y019080D01*
X033351Y022040D02*
X033380Y022076D01*
X033412Y022110D01*
X033447Y022141D01*
X033483Y022169D01*
X033522Y022194D01*
X033563Y022217D01*
X033605Y022236D01*
X033648Y022252D01*
X033693Y022264D01*
X033739Y022273D01*
X033785Y022278D01*
X033831Y022280D01*
X033357Y021312D02*
X033387Y021277D01*
X033418Y021244D01*
X033453Y021214D01*
X033489Y021187D01*
X033527Y021163D01*
X033567Y021141D01*
X033609Y021123D01*
X033652Y021107D01*
X033696Y021095D01*
X033740Y021087D01*
X033786Y021082D01*
X033831Y021080D01*
X034319Y022029D02*
X034290Y022066D01*
X034258Y022101D01*
X034223Y022134D01*
X034186Y022164D01*
X034147Y022190D01*
X034106Y022213D01*
X034062Y022234D01*
X034018Y022250D01*
X033972Y022263D01*
X033926Y022272D01*
X033878Y022278D01*
X033831Y022280D01*
X034305Y021312D02*
X034275Y021277D01*
X034244Y021244D01*
X034209Y021214D01*
X034173Y021187D01*
X034135Y021163D01*
X034095Y021141D01*
X034053Y021123D01*
X034010Y021107D01*
X033966Y021095D01*
X033922Y021087D01*
X033876Y021082D01*
X033831Y021080D01*
X033351Y024040D02*
X033380Y024076D01*
X033412Y024110D01*
X033447Y024141D01*
X033483Y024169D01*
X033522Y024194D01*
X033563Y024217D01*
X033605Y024236D01*
X033648Y024252D01*
X033693Y024264D01*
X033739Y024273D01*
X033785Y024278D01*
X033831Y024280D01*
X033357Y023312D02*
X033387Y023277D01*
X033418Y023244D01*
X033453Y023214D01*
X033489Y023187D01*
X033527Y023163D01*
X033567Y023141D01*
X033609Y023123D01*
X033652Y023107D01*
X033696Y023095D01*
X033740Y023087D01*
X033786Y023082D01*
X033831Y023080D01*
X034319Y024029D02*
X034290Y024066D01*
X034258Y024101D01*
X034223Y024134D01*
X034186Y024164D01*
X034147Y024190D01*
X034106Y024213D01*
X034062Y024234D01*
X034018Y024250D01*
X033972Y024263D01*
X033926Y024272D01*
X033878Y024278D01*
X033831Y024280D01*
X034305Y023312D02*
X034275Y023277D01*
X034244Y023244D01*
X034209Y023214D01*
X034173Y023187D01*
X034135Y023163D01*
X034095Y023141D01*
X034053Y023123D01*
X034010Y023107D01*
X033966Y023095D01*
X033922Y023087D01*
X033876Y023082D01*
X033831Y023080D01*
X037981Y024180D02*
X037983Y024253D01*
X037989Y024326D01*
X037999Y024398D01*
X038013Y024470D01*
X038030Y024541D01*
X038052Y024611D01*
X038077Y024680D01*
X038106Y024747D01*
X038138Y024812D01*
X038174Y024876D01*
X038214Y024938D01*
X038256Y024997D01*
X038302Y025054D01*
X038351Y025108D01*
X038403Y025160D01*
X038457Y025209D01*
X038514Y025255D01*
X038573Y025297D01*
X038635Y025337D01*
X038699Y025373D01*
X038764Y025405D01*
X038831Y025434D01*
X038900Y025459D01*
X038970Y025481D01*
X039041Y025498D01*
X039113Y025512D01*
X039185Y025522D01*
X039258Y025528D01*
X039331Y025530D01*
X039404Y025528D01*
X039477Y025522D01*
X039549Y025512D01*
X039621Y025498D01*
X039692Y025481D01*
X039762Y025459D01*
X039831Y025434D01*
X039898Y025405D01*
X039963Y025373D01*
X040027Y025337D01*
X040089Y025297D01*
X040148Y025255D01*
X040205Y025209D01*
X040259Y025160D01*
X040311Y025108D01*
X040360Y025054D01*
X040406Y024997D01*
X040448Y024938D01*
X040488Y024876D01*
X040524Y024812D01*
X040556Y024747D01*
X040585Y024680D01*
X040610Y024611D01*
X040632Y024541D01*
X040649Y024470D01*
X040663Y024398D01*
X040673Y024326D01*
X040679Y024253D01*
X040681Y024180D01*
X040679Y024107D01*
X040673Y024034D01*
X040663Y023962D01*
X040649Y023890D01*
X040632Y023819D01*
X040610Y023749D01*
X040585Y023680D01*
X040556Y023613D01*
X040524Y023548D01*
X040488Y023484D01*
X040448Y023422D01*
X040406Y023363D01*
X040360Y023306D01*
X040311Y023252D01*
X040259Y023200D01*
X040205Y023151D01*
X040148Y023105D01*
X040089Y023063D01*
X040027Y023023D01*
X039963Y022987D01*
X039898Y022955D01*
X039831Y022926D01*
X039762Y022901D01*
X039692Y022879D01*
X039621Y022862D01*
X039549Y022848D01*
X039477Y022838D01*
X039404Y022832D01*
X039331Y022830D01*
X039258Y022832D01*
X039185Y022838D01*
X039113Y022848D01*
X039041Y022862D01*
X038970Y022879D01*
X038900Y022901D01*
X038831Y022926D01*
X038764Y022955D01*
X038699Y022987D01*
X038635Y023023D01*
X038573Y023063D01*
X038514Y023105D01*
X038457Y023151D01*
X038403Y023200D01*
X038351Y023252D01*
X038302Y023306D01*
X038256Y023363D01*
X038214Y023422D01*
X038174Y023484D01*
X038138Y023548D01*
X038106Y023613D01*
X038077Y023680D01*
X038052Y023749D01*
X038030Y023819D01*
X038013Y023890D01*
X037999Y023962D01*
X037989Y024034D01*
X037983Y024107D01*
X037981Y024180D01*
D11*
X022361Y016300D02*
X022361Y016195D01*
X022255Y016090D01*
X022361Y015985D01*
X022361Y015880D01*
X022255Y015775D01*
X022045Y015775D01*
X021940Y015880D01*
X021716Y015880D02*
X021611Y015775D01*
X021401Y015775D01*
X021296Y015880D01*
X021296Y016300D01*
X021401Y016406D01*
X021611Y016406D01*
X021716Y016300D01*
X021940Y016300D02*
X022045Y016406D01*
X022255Y016406D01*
X022361Y016300D01*
X022255Y016090D02*
X022150Y016090D01*
X021076Y015775D02*
X020866Y015775D01*
X020971Y015775D02*
X020971Y016406D01*
X020866Y016406D02*
X021076Y016406D01*
X015486Y019365D02*
X015066Y019365D01*
X015486Y019785D01*
X015486Y019890D01*
X015381Y019996D01*
X015171Y019996D01*
X015066Y019890D01*
X011536Y019365D02*
X011116Y019365D01*
X011326Y019365D02*
X011326Y019996D01*
X011116Y019785D01*
D12*
X025136Y016783D02*
X025166Y016735D01*
X025199Y016690D01*
X025235Y016647D01*
X025273Y016606D01*
X025315Y016569D01*
X025359Y016534D01*
X025405Y016503D01*
X025454Y016474D01*
X025504Y016450D01*
X025556Y016429D01*
X025610Y016411D01*
X025664Y016398D01*
X025719Y016388D01*
X025775Y016382D01*
X025831Y016380D01*
X025125Y017556D02*
X025152Y017603D01*
X025182Y017648D01*
X025215Y017691D01*
X025251Y017731D01*
X025290Y017769D01*
X025331Y017804D01*
X025374Y017837D01*
X025419Y017866D01*
X025467Y017892D01*
X025516Y017915D01*
X025566Y017935D01*
X025617Y017951D01*
X025670Y017964D01*
X025723Y017973D01*
X025777Y017978D01*
X025831Y017980D01*
X026442Y016663D02*
X026406Y016624D01*
X026367Y016586D01*
X026327Y016552D01*
X026284Y016520D01*
X026239Y016492D01*
X026192Y016466D01*
X026143Y016443D01*
X026093Y016424D01*
X026042Y016408D01*
X025990Y016396D01*
X025938Y016387D01*
X025884Y016382D01*
X025831Y016380D01*
X026446Y017692D02*
X026410Y017732D01*
X026371Y017770D01*
X026330Y017805D01*
X026287Y017837D01*
X026242Y017867D01*
X026195Y017893D01*
X026146Y017915D01*
X026095Y017935D01*
X026044Y017951D01*
X025992Y017964D01*
X025938Y017973D01*
X025885Y017978D01*
X025831Y017980D01*
X033136Y017283D02*
X033166Y017235D01*
X033199Y017190D01*
X033235Y017147D01*
X033273Y017106D01*
X033315Y017069D01*
X033359Y017034D01*
X033405Y017003D01*
X033454Y016974D01*
X033504Y016950D01*
X033556Y016929D01*
X033610Y016911D01*
X033664Y016898D01*
X033719Y016888D01*
X033775Y016882D01*
X033831Y016880D01*
X033125Y018056D02*
X033152Y018103D01*
X033182Y018148D01*
X033215Y018191D01*
X033251Y018231D01*
X033290Y018269D01*
X033331Y018304D01*
X033374Y018337D01*
X033419Y018366D01*
X033467Y018392D01*
X033516Y018415D01*
X033566Y018435D01*
X033617Y018451D01*
X033670Y018464D01*
X033723Y018473D01*
X033777Y018478D01*
X033831Y018480D01*
X034442Y017163D02*
X034406Y017124D01*
X034367Y017086D01*
X034327Y017052D01*
X034284Y017020D01*
X034239Y016992D01*
X034192Y016966D01*
X034143Y016943D01*
X034093Y016924D01*
X034042Y016908D01*
X033990Y016896D01*
X033938Y016887D01*
X033884Y016882D01*
X033831Y016880D01*
X034446Y018192D02*
X034410Y018232D01*
X034371Y018270D01*
X034330Y018305D01*
X034287Y018337D01*
X034242Y018367D01*
X034195Y018393D01*
X034146Y018415D01*
X034095Y018435D01*
X034044Y018451D01*
X033992Y018464D01*
X033938Y018473D01*
X033885Y018478D01*
X033831Y018480D01*
X033125Y020056D02*
X033152Y020103D01*
X033182Y020148D01*
X033215Y020191D01*
X033251Y020231D01*
X033290Y020269D01*
X033331Y020304D01*
X033374Y020337D01*
X033419Y020366D01*
X033467Y020392D01*
X033516Y020415D01*
X033566Y020435D01*
X033617Y020451D01*
X033670Y020464D01*
X033723Y020473D01*
X033777Y020478D01*
X033831Y020480D01*
X033136Y019283D02*
X033166Y019235D01*
X033199Y019190D01*
X033235Y019147D01*
X033273Y019106D01*
X033315Y019069D01*
X033359Y019034D01*
X033405Y019003D01*
X033454Y018974D01*
X033504Y018950D01*
X033556Y018929D01*
X033610Y018911D01*
X033664Y018898D01*
X033719Y018888D01*
X033775Y018882D01*
X033831Y018880D01*
X033884Y018882D01*
X033938Y018887D01*
X033990Y018896D01*
X034042Y018908D01*
X034093Y018924D01*
X034143Y018943D01*
X034192Y018966D01*
X034239Y018992D01*
X034284Y019020D01*
X034327Y019052D01*
X034367Y019086D01*
X034406Y019124D01*
X034442Y019163D01*
X034446Y020192D02*
X034410Y020232D01*
X034371Y020270D01*
X034330Y020305D01*
X034287Y020337D01*
X034242Y020367D01*
X034195Y020393D01*
X034146Y020415D01*
X034095Y020435D01*
X034044Y020451D01*
X033992Y020464D01*
X033938Y020473D01*
X033885Y020478D01*
X033831Y020480D01*
X033125Y022056D02*
X033152Y022103D01*
X033182Y022148D01*
X033215Y022191D01*
X033251Y022231D01*
X033290Y022269D01*
X033331Y022304D01*
X033374Y022337D01*
X033419Y022366D01*
X033467Y022392D01*
X033516Y022415D01*
X033566Y022435D01*
X033617Y022451D01*
X033670Y022464D01*
X033723Y022473D01*
X033777Y022478D01*
X033831Y022480D01*
X033136Y021283D02*
X033166Y021235D01*
X033199Y021190D01*
X033235Y021147D01*
X033273Y021106D01*
X033315Y021069D01*
X033359Y021034D01*
X033405Y021003D01*
X033454Y020974D01*
X033504Y020950D01*
X033556Y020929D01*
X033610Y020911D01*
X033664Y020898D01*
X033719Y020888D01*
X033775Y020882D01*
X033831Y020880D01*
X033884Y020882D01*
X033938Y020887D01*
X033990Y020896D01*
X034042Y020908D01*
X034093Y020924D01*
X034143Y020943D01*
X034192Y020966D01*
X034239Y020992D01*
X034284Y021020D01*
X034327Y021052D01*
X034367Y021086D01*
X034406Y021124D01*
X034442Y021163D01*
X034446Y022192D02*
X034410Y022232D01*
X034371Y022270D01*
X034330Y022305D01*
X034287Y022337D01*
X034242Y022367D01*
X034195Y022393D01*
X034146Y022415D01*
X034095Y022435D01*
X034044Y022451D01*
X033992Y022464D01*
X033938Y022473D01*
X033885Y022478D01*
X033831Y022480D01*
X033125Y024056D02*
X033152Y024103D01*
X033182Y024148D01*
X033215Y024191D01*
X033251Y024231D01*
X033290Y024269D01*
X033331Y024304D01*
X033374Y024337D01*
X033419Y024366D01*
X033467Y024392D01*
X033516Y024415D01*
X033566Y024435D01*
X033617Y024451D01*
X033670Y024464D01*
X033723Y024473D01*
X033777Y024478D01*
X033831Y024480D01*
X033136Y023283D02*
X033166Y023235D01*
X033199Y023190D01*
X033235Y023147D01*
X033273Y023106D01*
X033315Y023069D01*
X033359Y023034D01*
X033405Y023003D01*
X033454Y022974D01*
X033504Y022950D01*
X033556Y022929D01*
X033610Y022911D01*
X033664Y022898D01*
X033719Y022888D01*
X033775Y022882D01*
X033831Y022880D01*
X033884Y022882D01*
X033938Y022887D01*
X033990Y022896D01*
X034042Y022908D01*
X034093Y022924D01*
X034143Y022943D01*
X034192Y022966D01*
X034239Y022992D01*
X034284Y023020D01*
X034327Y023052D01*
X034367Y023086D01*
X034406Y023124D01*
X034442Y023163D01*
X034446Y024192D02*
X034410Y024232D01*
X034371Y024270D01*
X034330Y024305D01*
X034287Y024337D01*
X034242Y024367D01*
X034195Y024393D01*
X034146Y024415D01*
X034095Y024435D01*
X034044Y024451D01*
X033992Y024464D01*
X033938Y024473D01*
X033885Y024478D01*
X033831Y024480D01*
D13*
X035851Y024353D02*
X036081Y024353D01*
X036158Y024430D01*
X036158Y024584D01*
X036081Y024660D01*
X035851Y024660D01*
X035851Y024200D01*
X036004Y024353D02*
X036158Y024200D01*
X036311Y024430D02*
X036618Y024430D01*
X036542Y024200D02*
X036542Y024660D01*
X036311Y024430D01*
X036388Y022660D02*
X036542Y022660D01*
X036618Y022584D01*
X036618Y022507D01*
X036542Y022430D01*
X036618Y022353D01*
X036618Y022277D01*
X036542Y022200D01*
X036388Y022200D01*
X036311Y022277D01*
X036158Y022200D02*
X036004Y022353D01*
X036081Y022353D02*
X035851Y022353D01*
X035851Y022200D02*
X035851Y022660D01*
X036081Y022660D01*
X036158Y022584D01*
X036158Y022430D01*
X036081Y022353D01*
X036311Y022584D02*
X036388Y022660D01*
X036465Y022430D02*
X036542Y022430D01*
X036542Y020660D02*
X036388Y020660D01*
X036311Y020584D01*
X036158Y020584D02*
X036158Y020430D01*
X036081Y020353D01*
X035851Y020353D01*
X035851Y020200D02*
X035851Y020660D01*
X036081Y020660D01*
X036158Y020584D01*
X036004Y020353D02*
X036158Y020200D01*
X036311Y020200D02*
X036618Y020507D01*
X036618Y020584D01*
X036542Y020660D01*
X036618Y020200D02*
X036311Y020200D01*
X036465Y018660D02*
X036465Y018200D01*
X036618Y018200D02*
X036311Y018200D01*
X036158Y018200D02*
X036004Y018353D01*
X036081Y018353D02*
X035851Y018353D01*
X035851Y018200D02*
X035851Y018660D01*
X036081Y018660D01*
X036158Y018584D01*
X036158Y018430D01*
X036081Y018353D01*
X036311Y018507D02*
X036465Y018660D01*
X029198Y021084D02*
X028891Y020777D01*
X028891Y020700D01*
X028737Y020777D02*
X028660Y020700D01*
X028507Y020700D01*
X028430Y020777D01*
X028430Y021084D01*
X028507Y021160D01*
X028660Y021160D01*
X028737Y021084D01*
X028891Y021160D02*
X029198Y021160D01*
X029198Y021084D01*
X026618Y020160D02*
X026465Y020084D01*
X026311Y019930D01*
X026542Y019930D01*
X026618Y019853D01*
X026618Y019777D01*
X026542Y019700D01*
X026388Y019700D01*
X026311Y019777D01*
X026311Y019930D01*
X026158Y019930D02*
X026081Y019853D01*
X025851Y019853D01*
X025851Y019700D02*
X025851Y020160D01*
X026081Y020160D01*
X026158Y020084D01*
X026158Y019930D01*
X026004Y019853D02*
X026158Y019700D01*
X023698Y020777D02*
X023698Y020853D01*
X023621Y020930D01*
X023391Y020930D01*
X023391Y020777D01*
X023467Y020700D01*
X023621Y020700D01*
X023698Y020777D01*
X023544Y021084D02*
X023391Y020930D01*
X023544Y021084D02*
X023698Y021160D01*
X023237Y021084D02*
X023160Y021160D01*
X023007Y021160D01*
X022930Y021084D01*
X022930Y020777D01*
X023007Y020700D01*
X023160Y020700D01*
X023237Y020777D01*
X022198Y018660D02*
X021891Y018660D01*
X021891Y018430D01*
X022044Y018507D01*
X022121Y018507D01*
X022198Y018430D01*
X022198Y018277D01*
X022121Y018200D01*
X021967Y018200D01*
X021891Y018277D01*
X021737Y018200D02*
X021584Y018353D01*
X021660Y018353D02*
X021430Y018353D01*
X021430Y018200D02*
X021430Y018660D01*
X021660Y018660D01*
X021737Y018584D01*
X021737Y018430D01*
X021660Y018353D01*
X020621Y019700D02*
X020467Y019700D01*
X020391Y019777D01*
X020391Y019853D01*
X020467Y019930D01*
X020621Y019930D01*
X020698Y019853D01*
X020698Y019777D01*
X020621Y019700D01*
X020621Y019930D02*
X020698Y020007D01*
X020698Y020084D01*
X020621Y020160D01*
X020467Y020160D01*
X020391Y020084D01*
X020391Y020007D01*
X020467Y019930D01*
X020237Y019777D02*
X020160Y019700D01*
X020007Y019700D01*
X019930Y019777D01*
X019930Y020084D01*
X020007Y020160D01*
X020160Y020160D01*
X020237Y020084D01*
X009198Y010084D02*
X009121Y010160D01*
X008967Y010160D01*
X008891Y010084D01*
X008737Y010084D02*
X008660Y010160D01*
X008507Y010160D01*
X008430Y010084D01*
X008430Y009777D01*
X008507Y009700D01*
X008660Y009700D01*
X008737Y009777D01*
X008891Y009700D02*
X009198Y010007D01*
X009198Y010084D01*
X009198Y009700D02*
X008891Y009700D01*
X009044Y008160D02*
X009044Y007700D01*
X008891Y007700D02*
X009198Y007700D01*
X008891Y008007D02*
X009044Y008160D01*
X008737Y008084D02*
X008660Y008160D01*
X008507Y008160D01*
X008430Y008084D01*
X008430Y007777D01*
X008507Y007700D01*
X008660Y007700D01*
X008737Y007777D01*
X012851Y005584D02*
X012851Y005277D01*
X012928Y005200D01*
X013081Y005200D01*
X013158Y005277D01*
X013311Y005277D02*
X013388Y005200D01*
X013542Y005200D01*
X013618Y005277D01*
X013618Y005353D01*
X013542Y005430D01*
X013465Y005430D01*
X013542Y005430D02*
X013618Y005507D01*
X013618Y005584D01*
X013542Y005660D01*
X013388Y005660D01*
X013311Y005584D01*
X013158Y005584D02*
X013081Y005660D01*
X012928Y005660D01*
X012851Y005584D01*
X005959Y017972D02*
X005652Y017972D01*
X005805Y017972D02*
X005805Y018432D01*
X005652Y018279D01*
X005498Y018432D02*
X005192Y017972D01*
X005498Y017972D02*
X005192Y018432D01*
X005236Y018960D02*
X004410Y018960D01*
X004450Y019806D02*
X005591Y019806D01*
X005748Y019806D02*
X006299Y019806D01*
X006457Y019806D02*
X007008Y019806D01*
X006969Y018960D02*
X006733Y018960D01*
X006536Y018960D02*
X006299Y018960D01*
X006103Y018960D02*
X005866Y018960D01*
X005670Y018960D02*
X005433Y018960D01*
X005591Y020554D02*
X004450Y020554D01*
X004410Y021400D02*
X005236Y021400D01*
X005433Y021400D02*
X005670Y021400D01*
X005866Y021400D02*
X006103Y021400D01*
X006299Y021400D02*
X006536Y021400D01*
X006733Y021400D02*
X006969Y021400D01*
X007008Y020554D02*
X006457Y020554D01*
X006299Y020554D02*
X005748Y020554D01*
X035351Y003584D02*
X035351Y003277D01*
X035428Y003200D01*
X035581Y003200D01*
X035658Y003277D01*
X035811Y003430D02*
X036042Y003660D01*
X036042Y003200D01*
X036118Y003430D02*
X035811Y003430D01*
X035658Y003584D02*
X035581Y003660D01*
X035428Y003660D01*
X035351Y003584D01*
D14*
X038975Y004530D02*
X039050Y004455D01*
X039125Y004455D01*
X039200Y004530D01*
X039200Y004905D01*
X039125Y004905D02*
X039275Y004905D01*
X039435Y004905D02*
X039660Y004905D01*
X039735Y004830D01*
X039735Y004680D01*
X039660Y004605D01*
X039435Y004605D01*
X039435Y004455D02*
X039435Y004905D01*
X039896Y004755D02*
X040046Y004905D01*
X040046Y004455D01*
X039896Y004455D02*
X040196Y004455D01*
X032547Y007000D02*
X032547Y007075D01*
X032472Y007150D01*
X032247Y007150D01*
X032247Y007000D01*
X032322Y006925D01*
X032472Y006925D01*
X032547Y007000D01*
X032397Y007300D02*
X032247Y007150D01*
X032087Y007150D02*
X032012Y007075D01*
X031786Y007075D01*
X031786Y006925D02*
X031786Y007375D01*
X032012Y007375D01*
X032087Y007300D01*
X032087Y007150D01*
X032397Y007300D02*
X032547Y007375D01*
X031626Y007375D02*
X031476Y007375D01*
X031551Y007375D02*
X031551Y007000D01*
X031476Y006925D01*
X031401Y006925D01*
X031326Y007000D01*
X031401Y008425D02*
X031476Y008425D01*
X031551Y008500D01*
X031551Y008875D01*
X031476Y008875D02*
X031626Y008875D01*
X031786Y008875D02*
X032012Y008875D01*
X032087Y008800D01*
X032087Y008650D01*
X032012Y008575D01*
X031786Y008575D01*
X031786Y008425D02*
X031786Y008875D01*
X032247Y008875D02*
X032247Y008650D01*
X032397Y008725D01*
X032472Y008725D01*
X032547Y008650D01*
X032547Y008500D01*
X032472Y008425D01*
X032322Y008425D01*
X032247Y008500D01*
X032247Y008875D02*
X032547Y008875D01*
X032472Y009925D02*
X032472Y010375D01*
X032247Y010150D01*
X032547Y010150D01*
X032087Y010150D02*
X032012Y010075D01*
X031786Y010075D01*
X031786Y009925D02*
X031786Y010375D01*
X032012Y010375D01*
X032087Y010300D01*
X032087Y010150D01*
X031626Y010375D02*
X031476Y010375D01*
X031551Y010375D02*
X031551Y010000D01*
X031476Y009925D01*
X031401Y009925D01*
X031326Y010000D01*
X031326Y008500D02*
X031401Y008425D01*
X037706Y013645D02*
X038156Y013645D01*
X038156Y013495D02*
X038156Y013795D01*
X037856Y013495D02*
X037706Y013645D01*
X039431Y015355D02*
X039356Y015430D01*
X039431Y015355D02*
X039581Y015355D01*
X039656Y015430D01*
X039656Y015505D01*
X039581Y015580D01*
X039431Y015580D01*
X039356Y015655D01*
X039356Y015730D01*
X039431Y015805D01*
X039581Y015805D01*
X039656Y015730D01*
X039816Y015805D02*
X039816Y015505D01*
X039966Y015355D01*
X040117Y015505D01*
X040117Y015805D01*
X040277Y015655D02*
X040427Y015805D01*
X040427Y015355D01*
X040277Y015355D02*
X040577Y015355D01*
X039981Y010945D02*
X039906Y010945D01*
X039831Y010870D01*
X039831Y010645D01*
X039981Y010645D01*
X040056Y010720D01*
X040056Y010870D01*
X039981Y010945D01*
X039681Y010795D02*
X039831Y010645D01*
X039681Y010795D02*
X039606Y010945D01*
X033496Y015105D02*
X033196Y015105D01*
X033346Y015105D02*
X033346Y015555D01*
X033196Y015405D01*
X033035Y015555D02*
X033035Y015105D01*
X032885Y015255D01*
X032735Y015105D01*
X032735Y015555D01*
X032575Y015480D02*
X032500Y015555D01*
X032350Y015555D01*
X032275Y015480D01*
X032275Y015405D01*
X032350Y015330D01*
X032500Y015330D01*
X032575Y015255D01*
X032575Y015180D01*
X032500Y015105D01*
X032350Y015105D01*
X032275Y015180D01*
X026906Y015930D02*
X026831Y015855D01*
X026681Y015855D01*
X026606Y015930D01*
X026606Y016080D02*
X026756Y016155D01*
X026831Y016155D01*
X026906Y016080D01*
X026906Y015930D01*
X026606Y016080D02*
X026606Y016305D01*
X026906Y016305D01*
X019056Y013495D02*
X019056Y013195D01*
X019056Y013345D02*
X018606Y013345D01*
X018756Y013195D01*
X016117Y015705D02*
X015816Y015705D01*
X015966Y015705D02*
X015966Y016155D01*
X015816Y016005D01*
X015656Y016080D02*
X015581Y016155D01*
X015431Y016155D01*
X015356Y016080D01*
X015356Y016005D01*
X015431Y015930D01*
X015581Y015930D01*
X015656Y015855D01*
X015656Y015780D01*
X015581Y015705D01*
X015431Y015705D01*
X015356Y015780D01*
X010226Y016060D02*
X010151Y015985D01*
X010001Y015985D01*
X009926Y016060D01*
X010076Y016210D02*
X010151Y016210D01*
X010226Y016135D01*
X010226Y016060D01*
X010151Y016210D02*
X010226Y016285D01*
X010226Y016360D01*
X010151Y016435D01*
X010001Y016435D01*
X009926Y016360D01*
X009765Y016360D02*
X009765Y016210D01*
X009690Y016135D01*
X009465Y016135D01*
X009465Y015985D02*
X009465Y016435D01*
X009690Y016435D01*
X009765Y016360D01*
X009305Y016435D02*
X009155Y016435D01*
X009230Y016435D02*
X009230Y016060D01*
X009155Y015985D01*
X009080Y015985D01*
X009005Y016060D01*
X012935Y011105D02*
X012935Y011030D01*
X013085Y010880D01*
X013085Y010655D01*
X013085Y010880D02*
X013235Y011030D01*
X013235Y011105D01*
X013396Y011030D02*
X013471Y011105D01*
X013621Y011105D01*
X013696Y011030D01*
X013696Y010955D01*
X013396Y010655D01*
X013696Y010655D01*
X016856Y009730D02*
X016856Y009655D01*
X016931Y009580D01*
X017081Y009580D01*
X017156Y009505D01*
X017156Y009430D01*
X017081Y009355D01*
X016931Y009355D01*
X016856Y009430D01*
X016856Y009730D02*
X016931Y009805D01*
X017081Y009805D01*
X017156Y009730D01*
X017316Y009805D02*
X017316Y009505D01*
X017466Y009355D01*
X017617Y009505D01*
X017617Y009805D01*
X017777Y009730D02*
X017852Y009805D01*
X018002Y009805D01*
X018077Y009730D01*
X018077Y009655D01*
X017777Y009355D01*
X018077Y009355D01*
X018606Y008870D02*
X018831Y008645D01*
X018831Y008945D01*
X019056Y008870D02*
X018606Y008870D01*
X013472Y002375D02*
X013322Y002375D01*
X013247Y002300D01*
X013087Y002300D02*
X013087Y002150D01*
X013012Y002075D01*
X012786Y002075D01*
X012786Y001925D02*
X012786Y002375D01*
X013012Y002375D01*
X013087Y002300D01*
X013472Y002375D02*
X013547Y002300D01*
X013547Y002225D01*
X013247Y001925D01*
X013547Y001925D01*
X012551Y002000D02*
X012551Y002375D01*
X012476Y002375D02*
X012626Y002375D01*
X012551Y002000D02*
X012476Y001925D01*
X012401Y001925D01*
X012326Y002000D01*
X016581Y020305D02*
X016731Y020305D01*
X016806Y020380D01*
X016966Y020380D02*
X017041Y020305D01*
X017192Y020305D01*
X017267Y020380D01*
X017267Y020530D01*
X017192Y020605D01*
X017116Y020605D01*
X016966Y020530D01*
X016966Y020755D01*
X017267Y020755D01*
X016806Y020680D02*
X016731Y020755D01*
X016581Y020755D01*
X016506Y020680D01*
X016506Y020380D01*
X016581Y020305D01*
X013496Y022555D02*
X013196Y022555D01*
X013346Y022555D02*
X013346Y023005D01*
X013196Y022855D01*
X013035Y022930D02*
X012960Y023005D01*
X012735Y023005D01*
X012735Y022555D01*
X012960Y022555D01*
X013035Y022630D01*
X013035Y022930D01*
X016856Y022825D02*
X017006Y022825D01*
X016931Y022825D02*
X016931Y023275D01*
X016856Y023275D02*
X017006Y023275D01*
X017163Y023200D02*
X017163Y022900D01*
X017238Y022825D01*
X017388Y022825D01*
X017463Y022900D01*
X017623Y022825D02*
X017924Y022825D01*
X017773Y022825D02*
X017773Y023275D01*
X017623Y023125D01*
X017463Y023200D02*
X017388Y023275D01*
X017238Y023275D01*
X017163Y023200D01*
X016981Y023480D02*
X016881Y023580D01*
X016831Y024730D01*
X016961Y023720D02*
X016963Y023740D01*
X016969Y023758D01*
X016978Y023776D01*
X016990Y023791D01*
X017005Y023803D01*
X017023Y023812D01*
X017041Y023818D01*
X017061Y023820D01*
X017081Y023818D01*
X017099Y023812D01*
X017117Y023803D01*
X017132Y023791D01*
X017144Y023776D01*
X017153Y023758D01*
X017159Y023740D01*
X017161Y023720D01*
X017159Y023700D01*
X017153Y023682D01*
X017144Y023664D01*
X017132Y023649D01*
X017117Y023637D01*
X017099Y023628D01*
X017081Y023622D01*
X017061Y023620D01*
X017041Y023622D01*
X017023Y023628D01*
X017005Y023637D01*
X016990Y023649D01*
X016978Y023664D01*
X016969Y023682D01*
X016963Y023700D01*
X016961Y023720D01*
X016981Y023480D02*
X020681Y023480D01*
X020781Y023580D01*
X020831Y024730D01*
X025831Y024730D02*
X025881Y023580D01*
X025981Y023480D01*
X029681Y023480D01*
X029781Y023580D01*
X029831Y024730D01*
X026924Y023200D02*
X026848Y023275D01*
X026698Y023275D01*
X026623Y023200D01*
X026463Y023200D02*
X026388Y023275D01*
X026238Y023275D01*
X026163Y023200D01*
X026163Y022900D01*
X026238Y022825D01*
X026388Y022825D01*
X026463Y022900D01*
X026623Y022825D02*
X026924Y023125D01*
X026924Y023200D01*
X026924Y022825D02*
X026623Y022825D01*
X026006Y022825D02*
X025856Y022825D01*
X025931Y022825D02*
X025931Y023275D01*
X025856Y023275D02*
X026006Y023275D01*
X025961Y023720D02*
X025963Y023740D01*
X025969Y023758D01*
X025978Y023776D01*
X025990Y023791D01*
X026005Y023803D01*
X026023Y023812D01*
X026041Y023818D01*
X026061Y023820D01*
X026081Y023818D01*
X026099Y023812D01*
X026117Y023803D01*
X026132Y023791D01*
X026144Y023776D01*
X026153Y023758D01*
X026159Y023740D01*
X026161Y023720D01*
X026159Y023700D01*
X026153Y023682D01*
X026144Y023664D01*
X026132Y023649D01*
X026117Y023637D01*
X026099Y023628D01*
X026081Y023622D01*
X026061Y023620D01*
X026041Y023622D01*
X026023Y023628D01*
X026005Y023637D01*
X025990Y023649D01*
X025978Y023664D01*
X025969Y023682D01*
X025963Y023700D01*
X025961Y023720D01*
D15*
X007662Y002180D02*
X007664Y002231D01*
X007670Y002282D01*
X007680Y002332D01*
X007693Y002382D01*
X007711Y002430D01*
X007731Y002477D01*
X007756Y002522D01*
X007784Y002565D01*
X007815Y002606D01*
X007849Y002644D01*
X007886Y002679D01*
X007925Y002712D01*
X007967Y002742D01*
X008011Y002768D01*
X008057Y002790D01*
X008105Y002810D01*
X008154Y002825D01*
X008204Y002837D01*
X008254Y002845D01*
X008305Y002849D01*
X008357Y002849D01*
X008408Y002845D01*
X008458Y002837D01*
X008508Y002825D01*
X008557Y002810D01*
X008605Y002790D01*
X008651Y002768D01*
X008695Y002742D01*
X008737Y002712D01*
X008776Y002679D01*
X008813Y002644D01*
X008847Y002606D01*
X008878Y002565D01*
X008906Y002522D01*
X008931Y002477D01*
X008951Y002430D01*
X008969Y002382D01*
X008982Y002332D01*
X008992Y002282D01*
X008998Y002231D01*
X009000Y002180D01*
X008998Y002129D01*
X008992Y002078D01*
X008982Y002028D01*
X008969Y001978D01*
X008951Y001930D01*
X008931Y001883D01*
X008906Y001838D01*
X008878Y001795D01*
X008847Y001754D01*
X008813Y001716D01*
X008776Y001681D01*
X008737Y001648D01*
X008695Y001618D01*
X008651Y001592D01*
X008605Y001570D01*
X008557Y001550D01*
X008508Y001535D01*
X008458Y001523D01*
X008408Y001515D01*
X008357Y001511D01*
X008305Y001511D01*
X008254Y001515D01*
X008204Y001523D01*
X008154Y001535D01*
X008105Y001550D01*
X008057Y001570D01*
X008011Y001592D01*
X007967Y001618D01*
X007925Y001648D01*
X007886Y001681D01*
X007849Y001716D01*
X007815Y001754D01*
X007784Y001795D01*
X007756Y001838D01*
X007731Y001883D01*
X007711Y001930D01*
X007693Y001978D01*
X007680Y002028D01*
X007670Y002078D01*
X007664Y002129D01*
X007662Y002180D01*
X010931Y008330D02*
X010931Y011030D01*
X010933Y011089D01*
X010939Y011147D01*
X010948Y011206D01*
X010962Y011263D01*
X010979Y011319D01*
X011000Y011374D01*
X011024Y011428D01*
X011052Y011480D01*
X011083Y011530D01*
X011117Y011578D01*
X011154Y011623D01*
X011195Y011666D01*
X011238Y011707D01*
X011283Y011744D01*
X011331Y011778D01*
X011381Y011809D01*
X011433Y011837D01*
X011487Y011861D01*
X011542Y011882D01*
X011598Y011899D01*
X011655Y011913D01*
X011714Y011922D01*
X011772Y011928D01*
X011831Y011930D01*
X011890Y011928D01*
X011948Y011922D01*
X012007Y011913D01*
X012064Y011899D01*
X012120Y011882D01*
X012175Y011861D01*
X012229Y011837D01*
X012281Y011809D01*
X012331Y011778D01*
X012379Y011744D01*
X012424Y011707D01*
X012467Y011666D01*
X012508Y011623D01*
X012545Y011578D01*
X012579Y011530D01*
X012610Y011480D01*
X012638Y011428D01*
X012662Y011374D01*
X012683Y011319D01*
X012700Y011263D01*
X012714Y011206D01*
X012723Y011147D01*
X012729Y011089D01*
X012731Y011030D01*
X012731Y008330D01*
X012729Y008271D01*
X012723Y008213D01*
X012714Y008154D01*
X012700Y008097D01*
X012683Y008041D01*
X012662Y007986D01*
X012638Y007932D01*
X012610Y007880D01*
X012579Y007830D01*
X012545Y007782D01*
X012508Y007737D01*
X012467Y007694D01*
X012424Y007653D01*
X012379Y007616D01*
X012331Y007582D01*
X012281Y007551D01*
X012229Y007523D01*
X012175Y007499D01*
X012120Y007478D01*
X012064Y007461D01*
X012007Y007447D01*
X011948Y007438D01*
X011890Y007432D01*
X011831Y007430D01*
X011772Y007432D01*
X011714Y007438D01*
X011655Y007447D01*
X011598Y007461D01*
X011542Y007478D01*
X011487Y007499D01*
X011433Y007523D01*
X011381Y007551D01*
X011331Y007582D01*
X011283Y007616D01*
X011238Y007653D01*
X011195Y007694D01*
X011154Y007737D01*
X011117Y007782D01*
X011083Y007830D01*
X011052Y007880D01*
X011024Y007932D01*
X011000Y007986D01*
X010979Y008041D01*
X010962Y008097D01*
X010948Y008154D01*
X010939Y008213D01*
X010933Y008271D01*
X010931Y008330D01*
X015481Y012980D02*
X017181Y012980D01*
X017531Y013780D02*
X017531Y014573D01*
X017181Y015380D02*
X015481Y015380D01*
X015131Y014585D02*
X015131Y013780D01*
X015631Y014180D02*
X015633Y014232D01*
X015639Y014284D01*
X015649Y014336D01*
X015662Y014386D01*
X015679Y014436D01*
X015700Y014484D01*
X015725Y014530D01*
X015753Y014574D01*
X015784Y014616D01*
X015818Y014656D01*
X015855Y014693D01*
X015895Y014727D01*
X015937Y014758D01*
X015981Y014786D01*
X016027Y014811D01*
X016075Y014832D01*
X016125Y014849D01*
X016175Y014862D01*
X016227Y014872D01*
X016279Y014878D01*
X016331Y014880D01*
X016383Y014878D01*
X016435Y014872D01*
X016487Y014862D01*
X016537Y014849D01*
X016587Y014832D01*
X016635Y014811D01*
X016681Y014786D01*
X016725Y014758D01*
X016767Y014727D01*
X016807Y014693D01*
X016844Y014656D01*
X016878Y014616D01*
X016909Y014574D01*
X016937Y014530D01*
X016962Y014484D01*
X016983Y014436D01*
X017000Y014386D01*
X017013Y014336D01*
X017023Y014284D01*
X017029Y014232D01*
X017031Y014180D01*
X017029Y014128D01*
X017023Y014076D01*
X017013Y014024D01*
X017000Y013974D01*
X016983Y013924D01*
X016962Y013876D01*
X016937Y013830D01*
X016909Y013786D01*
X016878Y013744D01*
X016844Y013704D01*
X016807Y013667D01*
X016767Y013633D01*
X016725Y013602D01*
X016681Y013574D01*
X016635Y013549D01*
X016587Y013528D01*
X016537Y013511D01*
X016487Y013498D01*
X016435Y013488D01*
X016383Y013482D01*
X016331Y013480D01*
X016279Y013482D01*
X016227Y013488D01*
X016175Y013498D01*
X016125Y013511D01*
X016075Y013528D01*
X016027Y013549D01*
X015981Y013574D01*
X015937Y013602D01*
X015895Y013633D01*
X015855Y013667D01*
X015818Y013704D01*
X015784Y013744D01*
X015753Y013786D01*
X015725Y013830D01*
X015700Y013876D01*
X015679Y013924D01*
X015662Y013974D01*
X015649Y014024D01*
X015639Y014076D01*
X015633Y014128D01*
X015631Y014180D01*
X009744Y018507D02*
X004371Y018507D01*
X004371Y021853D01*
X009744Y021853D01*
X007662Y024180D02*
X007664Y024231D01*
X007670Y024282D01*
X007680Y024332D01*
X007693Y024382D01*
X007711Y024430D01*
X007731Y024477D01*
X007756Y024522D01*
X007784Y024565D01*
X007815Y024606D01*
X007849Y024644D01*
X007886Y024679D01*
X007925Y024712D01*
X007967Y024742D01*
X008011Y024768D01*
X008057Y024790D01*
X008105Y024810D01*
X008154Y024825D01*
X008204Y024837D01*
X008254Y024845D01*
X008305Y024849D01*
X008357Y024849D01*
X008408Y024845D01*
X008458Y024837D01*
X008508Y024825D01*
X008557Y024810D01*
X008605Y024790D01*
X008651Y024768D01*
X008695Y024742D01*
X008737Y024712D01*
X008776Y024679D01*
X008813Y024644D01*
X008847Y024606D01*
X008878Y024565D01*
X008906Y024522D01*
X008931Y024477D01*
X008951Y024430D01*
X008969Y024382D01*
X008982Y024332D01*
X008992Y024282D01*
X008998Y024231D01*
X009000Y024180D01*
X008998Y024129D01*
X008992Y024078D01*
X008982Y024028D01*
X008969Y023978D01*
X008951Y023930D01*
X008931Y023883D01*
X008906Y023838D01*
X008878Y023795D01*
X008847Y023754D01*
X008813Y023716D01*
X008776Y023681D01*
X008737Y023648D01*
X008695Y023618D01*
X008651Y023592D01*
X008605Y023570D01*
X008557Y023550D01*
X008508Y023535D01*
X008458Y023523D01*
X008408Y023515D01*
X008357Y023511D01*
X008305Y023511D01*
X008254Y023515D01*
X008204Y023523D01*
X008154Y023535D01*
X008105Y023550D01*
X008057Y023570D01*
X008011Y023592D01*
X007967Y023618D01*
X007925Y023648D01*
X007886Y023681D01*
X007849Y023716D01*
X007815Y023754D01*
X007784Y023795D01*
X007756Y023838D01*
X007731Y023883D01*
X007711Y023930D01*
X007693Y023978D01*
X007680Y024028D01*
X007670Y024078D01*
X007664Y024129D01*
X007662Y024180D01*
X038662Y024180D02*
X038664Y024231D01*
X038670Y024282D01*
X038680Y024332D01*
X038693Y024382D01*
X038711Y024430D01*
X038731Y024477D01*
X038756Y024522D01*
X038784Y024565D01*
X038815Y024606D01*
X038849Y024644D01*
X038886Y024679D01*
X038925Y024712D01*
X038967Y024742D01*
X039011Y024768D01*
X039057Y024790D01*
X039105Y024810D01*
X039154Y024825D01*
X039204Y024837D01*
X039254Y024845D01*
X039305Y024849D01*
X039357Y024849D01*
X039408Y024845D01*
X039458Y024837D01*
X039508Y024825D01*
X039557Y024810D01*
X039605Y024790D01*
X039651Y024768D01*
X039695Y024742D01*
X039737Y024712D01*
X039776Y024679D01*
X039813Y024644D01*
X039847Y024606D01*
X039878Y024565D01*
X039906Y024522D01*
X039931Y024477D01*
X039951Y024430D01*
X039969Y024382D01*
X039982Y024332D01*
X039992Y024282D01*
X039998Y024231D01*
X040000Y024180D01*
X039998Y024129D01*
X039992Y024078D01*
X039982Y024028D01*
X039969Y023978D01*
X039951Y023930D01*
X039931Y023883D01*
X039906Y023838D01*
X039878Y023795D01*
X039847Y023754D01*
X039813Y023716D01*
X039776Y023681D01*
X039737Y023648D01*
X039695Y023618D01*
X039651Y023592D01*
X039605Y023570D01*
X039557Y023550D01*
X039508Y023535D01*
X039458Y023523D01*
X039408Y023515D01*
X039357Y023511D01*
X039305Y023511D01*
X039254Y023515D01*
X039204Y023523D01*
X039154Y023535D01*
X039105Y023550D01*
X039057Y023570D01*
X039011Y023592D01*
X038967Y023618D01*
X038925Y023648D01*
X038886Y023681D01*
X038849Y023716D01*
X038815Y023754D01*
X038784Y023795D01*
X038756Y023838D01*
X038731Y023883D01*
X038711Y023930D01*
X038693Y023978D01*
X038680Y024028D01*
X038670Y024078D01*
X038664Y024129D01*
X038662Y024180D01*
X038662Y002180D02*
X038664Y002231D01*
X038670Y002282D01*
X038680Y002332D01*
X038693Y002382D01*
X038711Y002430D01*
X038731Y002477D01*
X038756Y002522D01*
X038784Y002565D01*
X038815Y002606D01*
X038849Y002644D01*
X038886Y002679D01*
X038925Y002712D01*
X038967Y002742D01*
X039011Y002768D01*
X039057Y002790D01*
X039105Y002810D01*
X039154Y002825D01*
X039204Y002837D01*
X039254Y002845D01*
X039305Y002849D01*
X039357Y002849D01*
X039408Y002845D01*
X039458Y002837D01*
X039508Y002825D01*
X039557Y002810D01*
X039605Y002790D01*
X039651Y002768D01*
X039695Y002742D01*
X039737Y002712D01*
X039776Y002679D01*
X039813Y002644D01*
X039847Y002606D01*
X039878Y002565D01*
X039906Y002522D01*
X039931Y002477D01*
X039951Y002430D01*
X039969Y002382D01*
X039982Y002332D01*
X039992Y002282D01*
X039998Y002231D01*
X040000Y002180D01*
X039998Y002129D01*
X039992Y002078D01*
X039982Y002028D01*
X039969Y001978D01*
X039951Y001930D01*
X039931Y001883D01*
X039906Y001838D01*
X039878Y001795D01*
X039847Y001754D01*
X039813Y001716D01*
X039776Y001681D01*
X039737Y001648D01*
X039695Y001618D01*
X039651Y001592D01*
X039605Y001570D01*
X039557Y001550D01*
X039508Y001535D01*
X039458Y001523D01*
X039408Y001515D01*
X039357Y001511D01*
X039305Y001511D01*
X039254Y001515D01*
X039204Y001523D01*
X039154Y001535D01*
X039105Y001550D01*
X039057Y001570D01*
X039011Y001592D01*
X038967Y001618D01*
X038925Y001648D01*
X038886Y001681D01*
X038849Y001716D01*
X038815Y001754D01*
X038784Y001795D01*
X038756Y001838D01*
X038731Y001883D01*
X038711Y001930D01*
X038693Y001978D01*
X038680Y002028D01*
X038670Y002078D01*
X038664Y002129D01*
X038662Y002180D01*
D16*
X027831Y025030D03*
X018831Y025030D03*
D17*
X020556Y024780D03*
X017106Y024780D03*
X026106Y024780D03*
X029556Y024780D03*
D18*
X028331Y024780D03*
X027331Y024780D03*
X019331Y024780D03*
X018331Y024780D03*
D19*
X018001Y018980D02*
X018001Y018680D01*
X018001Y018380D01*
X017651Y018380D02*
X017651Y018680D01*
X017651Y018980D01*
D20*
X013381Y023680D03*
D21*
X014006Y023680D03*
X011656Y023680D03*
D22*
X029906Y014680D03*
X030156Y014680D03*
X030406Y014680D03*
X030406Y013680D03*
X030156Y013680D03*
X029906Y013680D03*
M02*
